# xmcd
#
# Track frame offsets:
#	150
#	17058
#	33966
#	51554
#	64873
#	82493
#	98097
#	109829
#	126661
#	144841
#	159590
#	176079
#	192746
#	212356
#	228224
#
# Disc length: 3272 seconds
#
# Revision: 1
# Processed by: cddbd v1.4PL0 Copyright (c) Steve Scherf et al.
# Submitted via: EasyCDDAExtractor 6.2.0.3
#
DISCID=da0cc60f
DTITLE=Matogrosso and Mathias - Mistério
DYEAR=2003
DGENRE=Sertanejo
TTITLE0=O Amor
TTITLE1=Mistério
TTITLE2=Enquanto O Sol Brilhar
TTITLE3=Eu Quero Te Namorar
TTITLE4=A Primeira Vez Que Eu Te Vi
TTITLE5=Rumos Do Coração
TTITLE6=Só Fazendo Amor
TTITLE7=Coração Congelado
TTITLE8=Tentei Te Esquecer
TTITLE9=Duas Caras
TTITLE10=Dentro Do Coração
TTITLE11=A Mais Louca Paixão
TTITLE12=Poesia Não Se Vende
TTITLE13=Imã
TTITLE14=A Vida De Pescador
EXTD=
EXTT0=
EXTT1=
EXTT2=
EXTT3=
EXTT4=
EXTT5=
EXTT6=
EXTT7=
EXTT8=
EXTT9=
EXTT10=
EXTT11=
EXTT12=
EXTT13=
EXTT14=
PLAYORDER=
